# xmcd
#
# Track frame offsets:
#       150
#       18212
#       60866
#       93353
#       114411
#       135130
#       151535
#       171572
#       188510
#       190129
#       211841
#       232721
#       253309
#       273338
#       296383
#
# Disc length: 4281 seconds
#
# Revision: 0
# Processed by: cddbd v1.5.1PL0 Copyright (c) Steve Scherf et al.
# Submitted via: WhereIsIt 3.57
#
DISCID=b410b70f
DTITLE=Janet Jackson - Just a little while
DYEAR=2004
DGENRE=
TTITLE0=Single radio edit
TTITLE1=Peter Rauhofer club mix
TTITLE2=Maurice's nu soul mix
TTITLE3=let's wait a while
TTITLE4=Love will never do
TTITLE5=Ranaway
TTITLE6=That's the way love goes
TTITLE7=Nasty
TTITLE8=2 way for you
TTITLE9=Come On Get Up
TTITLE10=China Love
TTITLE11=Someone To Call My Lover
TTITLE12=Doesn`t Really Matter
TTITLE13=Better Days
TTITLE14=All For You
EXTD=
EXTT0=
EXTT1=
EXTT2=
EXTT3=
EXTT4=
EXTT5=
EXTT6=
EXTT7=
EXTT8=
EXTT9=
EXTT10=
EXTT11=
EXTT12=
EXTT13=
EXTT14=
PLAYORDER=
